<svg width="36" height="36" viewBox="0 0 36 36" fill="none" xmlns="http://www.w3.org/2000/svg">
<path d="M18.4336 6.33333C19.9807 6.33333 21.4644 6.94791 22.5584 8.04187C23.6523 9.13583 24.2669 10.6196 24.2669 12.1667C24.2669 13.7138 23.6523 15.1975 22.5584 16.2915C21.4644 17.3854 19.9807 18 18.4336 18C16.8865 18 15.4027 17.3854 14.3088 16.2915C13.2148 15.1975 12.6002 13.7138 12.6002 12.1667C12.6002 10.6196 13.2148 9.13583 14.3088 8.04187C15.4027 6.94791 16.8865 6.33333 18.4336 6.33333ZM18.4336 20.9167C24.8794 20.9167 30.1002 23.5271 30.1002 26.75V29.6667H6.76691V26.75C6.76691 23.5271 11.9877 20.9167 18.4336 20.9167Z" fill="white"/>
</svg>
